<?xml version="1.0"?>
<svg xmlns="http://www.w3.org/2000/svg" xmlns:xlink="http://www.w3.org/1999/xlink" viewBox="0 0 512 512" width="512" height="512"><linearGradient id="a" gradientUnits="userSpaceOnUse" x1="130.5" x2="130.5" y1="12" y2="490.602"><stop offset="0" stop-color="#00efd1"/><stop offset="1" stop-color="#00acea"/></linearGradient><linearGradient id="b" x1="255.5" x2="255.5" xlink:href="#a" y1="12" y2="490.602"/><linearGradient id="c" x1="380.5" x2="380.5" xlink:href="#a" y1="12" y2="490.602"/><path d="m172 76h-83a10 10 0 0 0 -10 10v83a10 10 0 0 0 10 10h83a10 10 0 0 0 10-10v-83a10 10 0 0 0 -10-10zm-9 84h-64v-64h64z" fill="url(#a)"/><path d="m297 76h-83a10 10 0 0 0 -10 10v83a10 10 0 0 0 10 10h83a10 10 0 0 0 10-10v-83a10 10 0 0 0 -10-10zm-9 84h-64v-64h64z" fill="url(#b)"/><path d="m172 202h-83a10 10 0 0 0 -10 10v83a10 10 0 0 0 10 10h83a10 10 0 0 0 10-10v-83a10 10 0 0 0 -10-10zm-9 83h-64v-63h64z" fill="url(#a)"/><path d="m297 202h-83a10 10 0 0 0 -10 10v83a10 10 0 0 0 10 10h83a10 10 0 0 0 10-10v-83a10 10 0 0 0 -10-10zm-9 83h-64v-63h64z" fill="url(#b)"/><path d="m422 76h-83a10 10 0 0 0 -10 10v83a10 10 0 0 0 10 10h83a10 10 0 0 0 10-10v-83a10 10 0 0 0 -10-10zm-9 84h-64v-64h64z" fill="url(#c)"/><path d="m422 202h-83a10 10 0 0 0 -10 10v83a10 10 0 0 0 10 10h83a10 10 0 0 0 10-10v-83a10 10 0 0 0 -10-10zm-9 83h-64v-63h64z" fill="url(#c)"/><path d="m172 332h-83a10 10 0 0 0 -10 10v83a10 10 0 0 0 10 10h83a10 10 0 0 0 10-10v-83a10 10 0 0 0 -10-10zm-9 84h-64v-64h64z" fill="url(#a)"/><path d="m297 332h-83a10 10 0 0 0 -10 10v83a10 10 0 0 0 10 10h83a10 10 0 0 0 10-10v-83a10 10 0 0 0 -10-10zm-9 84h-64v-64h64z" fill="url(#b)"/><path d="m422 332h-83a10 10 0 0 0 -10 10v83a10 10 0 0 0 10 10h83a10 10 0 0 0 10-10v-83a10 10 0 0 0 -10-10zm-9 84h-64v-64h64z" fill="url(#c)"/></svg>
