<?xml version="1.0" encoding="utf-8"?>
<!-- Generator: Adobe Illustrator 15.0.0, SVG Export Plug-In . SVG Version: 6.00 Build 0)  -->
<!DOCTYPE svg PUBLIC "-//W3C//DTD SVG 1.1//EN" "http://www.w3.org/Graphics/SVG/1.1/DTD/svg11.dtd">
<svg version="1.1" id="Layer_1" xmlns="http://www.w3.org/2000/svg" xmlns:xlink="http://www.w3.org/1999/xlink" x="0px" y="0px"
	 width="85px" height="85px" viewBox="0 0 85 85" enable-background="new 0 0 85 85" xml:space="preserve">
<g>
	<path fill="none" stroke="#037FFF" stroke-width="2.5" stroke-linecap="round" stroke-linejoin="round" stroke-miterlimit="10" d="
		M22.355,21.169c-2.105,1.208-3.928,3.824-2.515,9.477c0,0-11.5,10-1,20.249c0,0-3,13.5,8.5,14.25"/>
	<g>
		<path fill="none" stroke="#037FFF" stroke-width="2.5" stroke-linecap="round" stroke-miterlimit="10" d="M35.439,28.398
			c-4.488,0-8.125-3.639-8.125-8.125c0-4.488,3.638-8.125,8.125-8.125c4.486,0,8.124,3.637,8.124,8.125v45.196
			c0,2.719-1.428,4.998-3.862,6.459c-3.785,2.275-8.697,1.049-10.97-2.734c-1.869-3.107-1.376-6.979,0.956-9.521l4.543-4.943"/>
		<path fill="none" stroke="#037FFF" stroke-width="2.5" stroke-linecap="round" stroke-miterlimit="10" d="M42.23,15.83
			c0.83,1.164,1.109,2.463,0.498,3.732c-0.121,0.252-0.275,0.5-0.463,0.738c-1.357,1.725-3.877,2.025-5.604,0.668"/>
		<path fill="none" stroke="#037FFF" stroke-width="2.5" stroke-linecap="round" stroke-miterlimit="10" d="M30.178,36.033
			c-2.271-0.559-3.673-2.871-3.115-5.141c0.558-2.271,2.872-3.67,5.144-3.113"/>
		<path fill="none" stroke="#037FFF" stroke-width="2.5" stroke-linecap="round" stroke-miterlimit="10" d="M43.365,39.033
			c-1.75-1.549-4.729-1.5-6.28,0.252c0,0-6.522,9.776-11.356,9.776"/>
		
			<line fill="none" stroke="#037FFF" stroke-width="2.5" stroke-linecap="round" stroke-miterlimit="10" x1="26.688" y1="56.27" x2="31.208" y2="57.781"/>
		<path fill="none" stroke="#037FFF" stroke-width="2.5" stroke-linecap="round" stroke-miterlimit="10" d="M23.812,40.646
			c0,0,4.25,2,7.25,5.249"/>
	</g>
	<g>
		
			<circle fill="none" stroke="#037FFF" stroke-width="2.5" stroke-linejoin="round" stroke-miterlimit="10" cx="66.328" cy="56.676" r="4.252"/>
		<polyline fill="none" stroke="#037FFF" stroke-width="2.5" stroke-linejoin="round" stroke-miterlimit="10" points="
			43.867,49.008 49.609,49.008 57.275,56.676 62.021,56.676 		"/>
		<polyline fill="none" stroke="#037FFF" stroke-width="2.5" stroke-linejoin="round" stroke-miterlimit="10" points="
			43.867,59.104 49.609,59.104 56.459,65.875 		"/>
		
			<circle fill="none" stroke="#037FFF" stroke-width="2.5" stroke-linejoin="round" stroke-miterlimit="10" cx="59.412" cy="68.906" r="4.252"/>
	</g>
	<g>
		
			<circle fill="none" stroke="#037FFF" stroke-width="2.5" stroke-linejoin="round" stroke-miterlimit="10" cx="66.328" cy="28.324" r="4.252"/>
		<polyline fill="none" stroke="#037FFF" stroke-width="2.5" stroke-linejoin="round" stroke-miterlimit="10" points="43.867,35.99 
			49.609,35.99 57.275,28.324 62.076,28.324 		"/>
		<polyline fill="none" stroke="#037FFF" stroke-width="2.5" stroke-linejoin="round" stroke-miterlimit="10" points="
			43.867,25.894 49.609,25.894 56.387,19.117 		"/>
		
			<circle fill="none" stroke="#037FFF" stroke-width="2.5" stroke-linejoin="round" stroke-miterlimit="10" cx="59.412" cy="16.093" r="4.252"/>
	</g>
	<g>
		
			<line fill="none" stroke="#037FFF" stroke-width="2.5" stroke-linejoin="round" stroke-miterlimit="10" x1="43.764" y1="42.499" x2="54.334" y2="42.499"/>
		
			<circle fill="none" stroke="#037FFF" stroke-width="2.5" stroke-linejoin="round" stroke-miterlimit="10" cx="58.523" cy="42.5" r="4.252"/>
	</g>
	<path fill="none" stroke="#037FFF" stroke-width="2.5" stroke-linecap="round" stroke-miterlimit="10" d="M37.808,63.93
		c0.805-1.49,2.676-2.051,4.165-1.248c1.066,0.574,1.629,1.701,1.582,2.84"/>
</g>
</svg>
