<svg width="47" height="41" xmlns="http://www.w3.org/2000/svg"><defs><linearGradient x1="170.649%" y1="50%" x2="-44.317%" y2="170.246%" id="a"><stop stop-color="#FF52C1" offset="0%"/><stop stop-color="#9952FF" offset="100%"/></linearGradient></defs><g transform="translate(-284 -1628)" fill="url(#a)" fill-rule="evenodd"><path d="M307.416 1629.333a3.136 3.136 0 0 0-3.132 3.132v.76a3.135 3.135 0 0 0 3.13 3.13h.002c.836 0 1.621-.325 2.213-.916a3.112 3.112 0 0 0 .918-2.215v-.758a3.11 3.11 0 0 0-.917-2.214 3.112 3.112 0 0 0-2.214-.919zm0 8.19h-.002a4.302 4.302 0 0 1-4.296-4.299v-.76a4.303 4.303 0 0 1 4.298-4.297 4.273 4.273 0 0 1 3.039 1.26 4.27 4.27 0 0 1 1.259 3.039v.758a4.27 4.27 0 0 1-1.26 3.04 4.265 4.265 0 0 1-3.038 1.258zM303.925 1668.759h-1.167l.003-23.916h1.166l-.002 23.916M312.067 1668.759H310.9l.003-23.916h1.166l-.002 23.916M307.997 1668.759h-1.168v-15.07h1.168v15.07"/><path d="M313.534 1654.273h-2.048v-1.166h2.048a.77.77 0 0 0 .768-.77v-9.357a2.832 2.832 0 0 0-1.943-2.694 15.808 15.808 0 0 0-9.887-.001 2.832 2.832 0 0 0-1.944 2.694l-.002 9.358a.77.77 0 0 0 .77.768h2.047v1.167h-2.049a1.938 1.938 0 0 1-1.934-1.937v-9.356a3.999 3.999 0 0 1 2.745-3.801 16.989 16.989 0 0 1 10.621 0 3.996 3.996 0 0 1 2.743 3.802v9.358a1.937 1.937 0 0 1-1.935 1.935M322.107 1631.926a3.134 3.134 0 0 0-3.131 3.13v.76c0 .835.326 1.622.917 2.214.592.59 1.378.917 2.214.917a3.135 3.135 0 0 0 3.132-3.132v-.758a3.135 3.135 0 0 0-3.132-3.131zm0 8.187a4.27 4.27 0 0 1-3.039-1.258 4.27 4.27 0 0 1-1.259-3.04v-.76a4.302 4.302 0 0 1 4.298-4.296 4.303 4.303 0 0 1 4.298 4.298v.758a4.303 4.303 0 0 1-4.298 4.298zM292.723 1631.922a3.11 3.11 0 0 0-2.214.917 3.11 3.11 0 0 0-.917 2.215v.758a3.135 3.135 0 0 0 3.13 3.131 3.136 3.136 0 0 0 3.133-3.13v-.76a3.135 3.135 0 0 0-3.131-3.13h-.001zm0 8.188a4.302 4.302 0 0 1-4.297-4.298v-.758c0-1.15.447-2.229 1.259-3.04a4.269 4.269 0 0 1 3.038-1.258 4.303 4.303 0 0 1 4.299 4.298v.759a4.304 4.304 0 0 1-4.3 4.297zM326.759 1668.76h-1.167l.001-21.325h1.167l-.001 21.325"/><path d="M328.224 1656.864h-2.047v-1.166h2.047a.77.77 0 0 0 .769-.768l.001-9.359a2.835 2.835 0 0 0-1.943-2.694 15.811 15.811 0 0 0-9.888-.001l-.367-1.107a16.997 16.997 0 0 1 10.62.001 3.999 3.999 0 0 1 2.745 3.801l-.001 9.359a1.937 1.937 0 0 1-1.936 1.934M318.617 1668.76h-1.167l.001-21.326h1.167l-.001 21.326M322.687 1668.76h-1.166v-12.48h1.167v12.48M289.232 1668.756h-1.167l.003-21.325h1.166l-.002 21.325M293.304 1668.756h-1.167l.001-12.478h1.167l-.001 12.478M297.374 1668.757h-1.165v-21.325h1.167l-.002 21.325"/><path d="M288.65 1656.86h-2.048a1.937 1.937 0 0 1-1.935-1.935v-9.357a3.997 3.997 0 0 1 2.745-3.801 16.956 16.956 0 0 1 10.621 0l-.367 1.108a15.783 15.783 0 0 0-9.887-.001 2.834 2.834 0 0 0-1.944 2.694l-.002 9.357c0 .424.345.768.77.768h2.047v1.167"/></g></svg>