<?xml version="1.0" encoding="utf-8"?>
<!-- Generator: Adobe Illustrator 25.2.0, SVG Export Plug-In . SVG Version: 6.00 Build 0)  -->
<svg version="1.1" id="Layer_1" xmlns="http://www.w3.org/2000/svg" xmlns:xlink="http://www.w3.org/1999/xlink" x="0px" y="0px"
	 viewBox="0 0 728.1 264.8" style="enable-background:new 0 0 728.1 264.8;" xml:space="preserve">
<style type="text/css">
	.st0{fill:#fff;}
</style>
<g id="XMLID_1_">
	<g id="XMLID_19_">
		<path id="XMLID_9_" class="st0" d="M674.4,116.6c0-8.8-2.4-17.2-8.1-17.2c-4.3,0-10.2,5.1-10.2,20.3c0,1.3,0.1,2.6,0.1,4h15.3
			C674.1,123.7,674.4,121.8,674.4,116.6z"/>
		<path id="XMLID_20_" class="st0" d="M595.7,0c-73.1,0-132.4,59.3-132.4,132.4c0,73.1,59.3,132.4,132.4,132.4
			c73.1,0,132.4-59.3,132.4-132.4C728.1,59.3,668.8,0,595.7,0z M625.7,167.8h-41.5V166c2.1,0,6.5-3.1,6.5-9.1V119
			c0-5.5-3.5-9.4-8.9-9.4c-4.8,0-8.1,4.4-8.1,9.7v37.5c0,6.8,3.7,9.2,7.2,9.2v1.7h-41.5V166c2.1,0,6.4-3.1,6.4-9.1V119
			c0-5.5-3.4-9.4-8.8-9.4c-4.5,0-7,4-8.5,6.4c0.1,14.9,0,39.9,0,39.9c0,7.7,4.5,9.9,6.5,10.1v1.7h-43.3V166
			c1.8-0.1,8.2-3.4,8.2-10.4V120c0-8.8-5.7-10.2-7.8-10.2v-1.6L525,97.7c2-0.6,3.5-0.7,3.5,2.3v10.5c2.7-3.7,11.2-12.8,23.7-12.8
			c9.5,0,17,4.1,20,12.6c3.6-4.4,11.5-12.6,24.4-12.6c12.6,0,21.9,7,21.9,21.6v37.5c0,6.8,3.7,9.2,7.1,9.2V167.8z M665.2,169.1
			c-20.6,0-35.5-13.4-35.5-34.7c0-22,17.3-37.6,38.8-37.6c19.2,0,32.2,13.8,32.2,27.3c0,1.7-0.3,2.8-2.6,2.8h-41.8
			c1.6,16.1,8,26,21.2,26c12.2,0,20.2-10.1,22-12.9c0.9-0.4,1.7-0.1,1.7,0.7C700,146.6,689.3,169.1,665.2,169.1z"/>
	</g>
	<g id="XMLID_2_">
		<path id="XMLID_5_" class="st0" d="M57.7,119.7C44.5,113.8,31,109.7,31,98.8c0-5.1,4.7-11.5,14.6-11.5c8.1,0,15,4.7,19.8,10.3
			c4.9,5.5,8.1,11.9,9.3,15.6c1.2,4.3,2.8,2.8,2.8,0.2V86.7c0-2.2-0.6-2.2-2-2.2c-1.4,0-4.5,1.4-8.7,1.4c-4.3,0-13.6-2.6-24.7-2.6
			c-20.9,0-41.5,13-41.5,35c0,16.8,10.9,24.9,22.9,30.4c14.8,7.1,31.6,9.9,31.6,20.7c0,6.5-5.5,12.6-15.6,12.6
			c-10.9,0-19.6-8.1-25.9-17.4c-5.5-8.1-8.9-16.8-10.3-21.7c-1-3.4-3.2-1.8-3.2,0.2v38.7c0,2.2,0.2,2.8,1.4,2.8
			c1.2,0,4.5-2.4,11.3-2.4c12.8,0,14.2,3.2,30.4,3.2c20.2,0,39.5-16.2,39.5-35.2C82.6,133,70.3,125.5,57.7,119.7z"/>
		<path id="XMLID_4_" class="st0" d="M279.9,85.2h-39.3v2.8c7.5,0,10.9,6.9,10.9,15.6c0,5.1-1,10.3-2,13.4l-9.1,25.5L226,101.6
			c-2.4-6.7,0.2-13.6,6.5-13.6v-2.8h-70.4h-0.7h-23V55.7c0-3.2-1.6-2.8-3-1.6L89.6,94.6c-2.8,2.6-1,4.5,0.6,4.5h8.1v58.9
			c0,16.6,12.3,27.9,30,27.9c22.1,0,34.8-19,37.7-27.3c0.2-1.2-0.4-2-1.4-1.4c-1.8,3-7.9,9.7-15.2,9.7c-6.9,0-10.9-6.5-10.9-14.6
			v-53h17.2c1,0,1.6-0.8,2-1.4l4.7-9.7c6.1,0.3,11.4,3.1,15,12.9l30.8,82.4h17.4l-8.1,22.9c-2.6,7.3-4.9,11.1-9.3,11.1
			c-3,0-3.6-16.8-20.4-16.8c-8.3,0-17.2,7.5-17.2,18c0,10.9,8.1,19.4,20,19.4c14.2,0,23.7-9.3,29.4-24.5l33-89.9
			c8.7-23.7,18.8-35.6,26.9-35.6V85.2z"/>
		<path id="XMLID_3_" class="st0" d="M328.5,166.6V28c0-4.3-2.2-4-5.1-3.2l-45.6,15v2.2c3,0,11.1,1.8,11.1,14.6v109.7
			c0,9.9-9.1,14.6-11.7,14.8v2.4h61.5V181C334.8,181,328.5,177.6,328.5,166.6z"/>
		<path id="XMLID_13_" class="st0" d="M443.4,144.4c-2.6,4.1-14,18.4-31.4,18.4c-18.8,0-27.9-14.2-30.2-37h59.5
			c3.2,0,3.6-1.6,3.6-4.1c0-19.2-18.6-38.9-46-38.9c-30.6,0-55.3,22.3-55.3,53.7c0,30.4,21.3,49.4,50.6,49.4
			c34.4,0,49.6-32,51.4-40.5C445.8,144.2,444.6,143.8,443.4,144.4z M381.4,115.6c0-21.7,8.5-29,14.6-29c8.1,0,11.5,11.9,11.5,24.5
			c0,7.3-0.4,10.1-4,10.1h-21.9C381.6,119.3,381.4,117.4,381.4,115.6z"/>
	</g>
</g>
</svg>
