<?xml version="1.0" standalone="no"?>
<!DOCTYPE svg PUBLIC "-//W3C//DTD SVG 20010904//EN"
 "http://www.w3.org/TR/2001/REC-SVG-20010904/DTD/svg10.dtd">
<svg version="1.0" xmlns="http://www.w3.org/2000/svg"
 width="1000.000000pt" height="1080.000000pt" viewBox="0 0 1000.000000 1080.000000"
 preserveAspectRatio="xMidYMid meet">
<metadata>
Created by potrace 1.16, written by Peter Selinger 2001-2019
</metadata>
<g transform="translate(0.000000,1080.000000) scale(0.100000,-0.100000)"
fill="#000000" stroke="none">
<path d="M5306 9084 c-202 -49 -369 -215 -421 -419 -13 -50 -15 -173 -15 -833
0 -864 -2 -834 70 -969 l39 -73 -219 0 -218 0 -12 35 c-15 47 -73 102 -122
117 -29 8 -40 18 -44 37 -18 76 -84 141 -142 141 -20 0 -21 7 -24 198 -3 192
-4 198 -31 253 -79 161 -270 235 -441 170 -51 -20 -115 -73 -151 -125 -52 -77
-65 -143 -65 -332 l0 -162 -34 -6 c-19 -4 -46 -16 -60 -27 -30 -23 -66 -88
-66 -117 0 -13 -12 -22 -40 -31 -53 -16 -99 -56 -122 -108 l-18 -42 -268 -3
-267 -3 -51 -27 c-106 -56 -188 -168 -219 -300 -10 -43 -15 -119 -15 -235 l0
-171 -28 -7 c-43 -9 -90 -42 -112 -77 -18 -30 -20 -51 -20 -220 l0 -188 -49 0
c-43 0 -51 3 -57 23 -19 63 -92 116 -160 117 -51 0 -115 -40 -141 -90 -28 -52
-29 -91 -4 -146 60 -132 261 -120 302 17 12 38 13 39 61 39 l48 0 0 -187 c0
-170 2 -191 20 -221 22 -35 69 -68 112 -77 l28 -7 0 -232 c0 -128 5 -259 11
-291 26 -142 111 -260 228 -318 65 -32 66 -32 243 -35 156 -3 178 -6 178 -20
0 -14 1 -14 13 1 11 15 91 17 1047 19 l1035 3 66 32 c83 41 140 102 184 196
44 94 55 178 55 435 l0 207 48 17 c26 10 61 31 77 48 l30 31 5 197 5 197 45 3
c45 3 45 3 64 -43 10 -26 33 -57 54 -73 30 -23 45 -27 98 -27 103 0 159 56
159 159 0 53 -4 68 -27 98 -75 98 -231 81 -280 -29 -19 -42 -20 -43 -68 -43
l-50 0 0 195 0 194 -31 36 c-18 20 -51 42 -79 52 l-47 17 -6 190 c-4 158 -8
202 -26 256 -11 36 -21 66 -21 68 0 1 169 2 375 2 l375 0 0 -22 c-1 -13 -32
-165 -69 -338 -37 -173 -67 -317 -65 -318 1 -2 218 150 481 337 l478 341 782
0 782 0 78 25 c148 47 272 154 338 290 61 126 60 108 60 955 0 865 4 818 -72
962 -63 121 -187 225 -322 271 l-66 22 -1575 2 c-1339 1 -1584 -1 -1634 -13z
m3229 -49 c169 -44 302 -167 367 -341 23 -59 23 -59 26 -819 2 -529 -1 -780
-8 -827 -31 -185 -172 -346 -358 -410 l-67 -23 -790 3 -790 3 -430 -309 c-236
-170 -431 -306 -432 -303 -1 3 26 139 61 301 34 162 61 298 59 303 -2 4 -188
7 -412 7 -344 0 -416 2 -462 16 -178 52 -318 194 -364 369 -13 51 -15 171 -15
835 0 853 -2 821 62 942 59 112 194 218 318 252 85 23 3148 23 3235 1z m-4548
-1341 c69 -33 138 -111 158 -177 11 -37 15 -98 15 -224 l0 -173 -306 0 -306 0
4 183 c3 163 6 187 26 231 32 71 66 112 119 143 99 58 193 63 290 17z m271
-631 c35 -17 62 -58 62 -93 0 -20 -3 -20 -466 -20 l-466 0 6 28 c9 36 37 74
66 89 17 8 129 12 394 12 320 0 376 -2 404 -16z m160 -181 c18 -9 42 -32 53
-50 l21 -32 -631 0 c-347 0 -631 3 -631 8 0 16 34 54 64 73 29 18 57 19 561
19 487 0 533 -1 563 -18z m650 -181 c53 -44 139 -93 193 -110 30 -10 41 -21
57 -60 40 -91 42 -147 42 -1066 0 -964 -1 -968 -55 -1074 -35 -70 -84 -122
-147 -156 -44 -24 -68 -30 -140 -33 l-88 -4 0 128 c-1 71 0 316 0 544 0 237
-4 446 -10 488 -12 86 -44 153 -97 204 -75 72 -20 68 -949 68 l-836 0 -50 -27
c-58 -32 -102 -83 -132 -156 -21 -51 -21 -65 -24 -651 l-3 -598 -87 4 c-68 3
-98 10 -137 30 -58 30 -124 97 -154 157 -52 100 -51 88 -51 1078 0 644 3 938
11 975 26 119 98 221 191 267 l61 31 1179 0 1179 0 47 -39z m-2718 -1160 l0
-470 -32 10 c-18 5 -45 22 -60 39 l-28 30 0 389 c0 383 0 389 22 416 18 24 68
53 91 55 4 0 7 -211 7 -469z m3104 455 c18 -7 42 -26 54 -41 22 -27 22 -33 22
-415 0 -382 0 -388 -22 -415 -18 -23 -72 -55 -93 -55 -3 0 -5 212 -5 470 0
259 2 470 5 470 3 0 20 -6 39 -14z m-3463 -359 c68 -46 80 -125 26 -183 -58
-64 -152 -55 -198 19 -37 58 -9 145 54 172 46 20 79 18 118 -8z m3910 0 c41
-28 59 -60 59 -111 0 -31 -7 -45 -39 -77 -32 -32 -46 -39 -77 -39 -51 0 -83
18 -112 60 -40 60 -15 147 51 175 46 20 79 18 118 -8z m-1183 -62 c32 -8 100
-72 122 -116 35 -68 41 -155 38 -588 -1 -229 -4 -473 -6 -543 l-3 -128 -880 0
c-495 0 -879 4 -879 9 0 5 -14 11 -30 15 -24 4 -35 15 -47 43 l-16 38 -15 -38
c-11 -29 -22 -40 -44 -44 -16 -3 -31 -10 -34 -14 -3 -5 -14 -9 -25 -9 -19 0
-19 12 -19 573 0 622 2 640 56 718 31 46 83 80 132 88 44 8 1619 3 1650 -4z"/>
<path d="M8150 8503 c-22 -28 -22 -30 -17 -418 3 -257 9 -407 17 -440 19 -78
59 -97 106 -50 l25 25 -3 403 c-3 344 -5 407 -19 437 -34 74 -73 89 -109 43z"/>
<path d="M6905 8393 c-13 -12 -15 -26 -11 -52 7 -45 28 -241 61 -566 35 -352
67 -521 110 -582 25 -36 60 -30 80 14 17 36 17 40 -4 128 -29 123 -45 243 -76
560 -32 333 -57 484 -81 502 -25 18 -59 16 -79 -4z"/>
<path d="M7195 8396 c-18 -13 -18 -18 -2 -152 9 -76 26 -240 37 -364 38 -407
68 -585 113 -665 30 -54 65 -55 90 -4 17 35 17 39 -2 110 -29 107 -46 235 -81
582 -34 339 -53 463 -77 490 -19 20 -52 22 -78 3z"/>
<path d="M5725 8363 c-44 -11 -45 -15 -45 -248 l0 -223 -37 -19 c-58 -28 -57
-87 2 -121 16 -8 35 -206 35 -367 1 -110 11 -159 41 -191 31 -33 68 -28 91 12
17 29 18 46 8 230 -5 110 -12 227 -14 261 l-4 63 82 26 c44 14 110 28 146 31
l66 5 12 -131 c15 -167 53 -467 61 -480 4 -5 31 -13 60 -17 l54 -7 -7 26 c-23
95 -38 310 -41 607 -5 396 -13 496 -45 522 -30 24 -75 23 -101 -3 -20 -20 -20
-27 -13 -172 13 -248 15 -230 -26 -239 -19 -4 -84 -10 -143 -14 l-108 -7 6
164 c3 90 8 187 10 216 3 28 2 59 -1 67 -6 16 -45 20 -89 9z"/>
<path d="M7705 8133 c-130 -68 -217 -283 -219 -543 -1 -111 15 -183 57 -263
44 -83 121 -137 197 -137 83 0 203 84 248 172 60 121 56 315 -13 575 -24 93
-55 154 -97 192 -27 26 -127 29 -173 4z m95 -133 c48 -26 103 -162 119 -298
20 -163 -10 -285 -87 -354 -74 -67 -147 -49 -195 47 -28 56 -40 151 -34 263
10 166 45 274 107 326 34 28 60 32 90 16z"/>
<path d="M6627 8079 c-60 -32 -141 -122 -185 -207 -39 -75 -43 -78 -71 -74
-23 3 -36 -2 -57 -23 -37 -37 -28 -84 24 -139 34 -36 41 -53 61 -141 53 -243
149 -344 318 -333 88 6 139 35 178 102 35 60 31 90 -13 94 -26 3 -42 -5 -83
-39 -45 -38 -54 -41 -91 -36 -95 13 -176 114 -186 233 -6 80 4 93 133 169 98
57 171 127 180 172 4 15 8 33 10 40 8 26 -24 115 -51 144 -58 61 -103 72 -167
38z m77 -157 c-3 -85 -67 -158 -163 -187 -23 -7 -23 -6 -16 31 18 99 108 219
158 212 20 -3 22 -9 21 -56z"/>
<path d="M3295 6125 c-24 -23 -25 -28 -25 -173 0 -128 3 -153 18 -170 25 -30
70 -33 96 -6 13 13 16 43 16 172 0 86 -4 162 -8 168 -9 13 -46 34 -62 34 -6 0
-22 -11 -35 -25z"/>
<path d="M4465 6125 c-24 -23 -25 -28 -25 -173 0 -128 3 -153 18 -170 25 -30
70 -33 96 -6 13 13 16 43 16 172 0 86 -4 162 -8 168 -9 13 -46 34 -62 34 -6 0
-22 -11 -35 -25z"/>
<path d="M3625 5099 c-44 -5 -124 -20 -178 -34 -214 -53 -299 -125 -251 -214
37 -69 167 -124 379 -158 145 -24 490 -21 638 6 204 36 315 85 353 156 17 32
17 36 1 69 -33 71 -150 126 -342 161 -107 20 -478 29 -600 14z m235 -203 c0
-105 -4 -167 -11 -171 -5 -4 -57 -4 -115 0 l-104 7 0 159 0 158 28 4 c15 2 66
5 115 6 l87 1 0 -164z m239 158 l61 -7 0 -152 c0 -178 17 -160 -152 -171
l-108 -7 0 172 0 171 69 0 c37 0 96 -3 130 -6z m-519 -164 c0 -82 -2 -150 -4
-150 -11 0 -143 29 -158 35 -16 6 -18 22 -18 115 0 74 4 111 12 116 14 9 114
32 146 33 22 1 22 0 22 -149z m745 123 c96 -24 94 -21 94 -117 0 -55 -4 -88
-12 -94 -15 -13 -153 -52 -182 -52 -19 0 -20 6 -18 138 1 75 2 140 2 145 1 8
13 6 116 -20z m-965 -118 c0 -59 -4 -95 -10 -95 -19 0 -84 37 -104 59 -30 33
-14 66 47 101 28 16 55 30 60 30 4 0 7 -43 7 -95z"/>
<path d="M3667 4604 c-4 -4 -7 -16 -7 -26 0 -17 13 -18 221 -18 l220 0 -3 23
c-3 22 -4 22 -214 25 -115 1 -213 -1 -217 -4z"/>
<path d="M583 4645 c-52 -22 -67 -55 -67 -154 -1 -103 18 -164 72 -236 33 -44
104 -107 131 -116 5 -2 30 -74 55 -160 83 -289 183 -523 301 -700 78 -118 219
-254 332 -322 95 -57 239 -110 345 -127 76 -12 323 -9 396 6 l32 6 0 -70 c0
-38 3 -84 6 -102 9 -45 66 -98 120 -112 l44 -12 0 -333 0 -333 -246 -2 c-214
-3 -248 -5 -257 -19 -6 -9 -7 -24 -4 -33 6 -15 159 -16 1937 -16 1778 0 1931
1 1937 16 3 9 2 24 -4 33 -8 13 -35 16 -157 19 l-146 3 0 334 c0 295 2 335 15
335 27 0 92 38 119 70 24 30 26 38 26 137 l0 106 38 -6 c344 -55 689 64 917
316 156 171 308 464 417 806 42 129 44 134 81 153 60 30 125 102 160 176 29
60 32 77 32 157 0 106 -14 136 -71 155 -47 16 -112 7 -138 -19 -18 -19 -19
-25 -8 -66 18 -67 15 -112 -10 -157 -31 -55 -90 -88 -157 -88 -111 0 -181 80
-181 206 0 51 -28 90 -75 103 -42 11 -73 5 -102 -22 -20 -18 -23 -30 -23 -97
0 -112 34 -202 104 -278 l31 -33 -44 -127 c-127 -373 -287 -621 -461 -719
-103 -59 -173 -76 -295 -76 -60 1 -132 7 -160 14 l-50 14 -5 103 -5 104 -37
34 c-21 19 -57 39 -81 46 -42 11 -43 12 -54 67 -25 133 -109 248 -221 303
l-67 33 -1230 0 -1230 0 -48 -22 c-108 -50 -218 -197 -233 -315 -5 -33 -12
-51 -23 -55 -9 -3 -40 -16 -70 -30 -71 -34 -90 -75 -91 -195 l0 -87 -52 -17
c-69 -21 -266 -30 -339 -15 -192 40 -353 188 -472 433 -72 148 -176 443 -177
499 0 9 16 34 36 55 71 78 122 229 107 319 -8 52 -46 78 -103 72 -61 -7 -100
-50 -100 -110 -1 -91 -71 -180 -154 -192 -141 -21 -241 109 -191 249 17 49 7
72 -40 92 -42 17 -71 17 -112 -1z m113 -47 c2 -3 -3 -24 -11 -48 -22 -61 -19
-109 10 -167 42 -84 109 -125 206 -125 127 0 229 110 229 248 0 36 21 54 63
54 39 0 51 -23 44 -86 -17 -166 -125 -293 -274 -324 -146 -31 -311 56 -376
198 -30 66 -31 209 -2 242 16 18 28 21 63 17 24 -2 45 -7 48 -9z m6455 -39
c19 -19 21 -30 17 -104 -5 -104 -38 -175 -109 -239 -72 -65 -143 -89 -244 -84
-169 9 -286 119 -317 295 -14 84 -6 120 27 129 46 11 71 -16 78 -86 8 -73 47
-152 92 -185 96 -71 226 -57 307 33 53 59 69 127 47 205 -5 20 -7 42 -4 47 12
19 84 11 106 -11z m-6035 -504 c12 -44 20 -83 16 -87 -9 -8 -273 -90 -277 -86
-7 7 -65 221 -61 225 2 2 25 -1 51 -8 52 -13 159 0 205 26 14 8 29 13 34 12 5
-2 19 -39 32 -82z m5594 43 c42 -15 74 -19 132 -16 48 2 78 -1 78 -7 0 -14
-58 -187 -68 -202 -6 -9 -42 0 -142 37 -73 28 -135 51 -136 53 -2 2 9 40 23
85 22 65 31 81 43 76 8 -3 40 -15 70 -26z m-5506 -303 c20 -49 32 -93 28 -96
-10 -9 -264 -120 -267 -117 -7 10 -85 219 -85 230 0 9 51 31 138 59 120 40
138 44 144 30 4 -9 23 -56 42 -106z m3941 96 c87 -42 148 -114 191 -226 18
-47 19 -94 22 -912 l3 -863 -1481 0 -1480 0 0 843 c0 912 -1 897 54 1006 31
60 122 144 178 164 37 13 200 16 1248 16 l1205 1 60 -29z m1547 -32 c73 -28
134 -52 135 -53 3 -3 -94 -226 -100 -233 -6 -6 -254 114 -262 127 -3 4 11 43
31 86 20 44 40 89 45 102 5 12 10 22 13 22 2 0 64 -23 138 -51z m-126 -275
c68 -36 124 -71 124 -76 0 -24 -124 -218 -139 -218 -13 0 -232 171 -229 178 9
20 112 182 115 182 2 0 60 -30 129 -66z m-5352 19 c-7 -32 -30 -53 -56 -53
-10 0 -18 -4 -18 -10 0 -5 9 -10 19 -10 21 0 61 -44 61 -66 0 -26 16 -14 25
18 8 24 19 35 45 43 34 12 35 11 58 -27 13 -22 22 -41 20 -42 -76 -55 -240
-167 -242 -164 -29 39 -54 82 -91 150 l-44 83 107 52 c59 28 110 52 115 52 4
1 5 -11 1 -26z m1136 -543 c0 -319 -3 -470 -10 -470 -22 0 -90 41 -100 59 -6
13 -10 162 -10 415 0 388 0 396 21 417 19 19 73 48 92 49 4 0 7 -211 7 -470z
m3153 420 l27 -30 0 -389 c0 -383 0 -389 -22 -416 -18 -23 -72 -55 -93 -55 -3
0 -5 211 -5 469 l0 470 33 -10 c17 -5 44 -22 60 -39z m920 -169 c48 -41 87
-77 87 -81 0 -10 -91 -94 -155 -143 l-59 -46 -82 126 -82 126 47 37 c25 21 59
51 75 68 l29 31 26 -22 c15 -12 66 -55 114 -96z m-4997 83 c10 -14 41 -45 70
-68 l52 -43 -85 -121 c-100 -142 -84 -140 -209 -20 -83 79 -96 101 -71 111 6
3 57 42 112 86 55 44 103 81 107 81 4 0 15 -12 24 -26z m4711 -202 c24 -42 56
-101 73 -129 l30 -53 -47 -24 c-53 -26 -221 -81 -228 -74 -5 5 -55 263 -55
283 0 7 17 16 38 20 20 4 60 17 87 30 28 13 52 24 55 24 3 1 24 -34 47 -77z
m-4475 28 c34 -16 71 -30 80 -30 9 0 19 -3 22 -8 5 -9 -53 -273 -63 -285 -15
-16 -278 93 -268 111 53 90 151 242 157 242 4 0 37 -13 72 -30z m514 -316 c-2
-6 -16 -14 -30 -16 -21 -4 -27 -1 -31 16 -12 56 -45 243 -45 257 0 11 17 21
53 30 l52 14 3 -144 c1 -80 1 -150 -2 -157z m3689 261 c2 -16 9 -73 15 -125 6
-52 13 -105 15 -116 4 -20 -1 -22 -50 -29 -59 -7 -205 3 -225 15 -9 6 -7 35 9
131 12 68 24 131 27 141 4 14 19 16 104 15 l100 -2 5 -30z m-3845 -9 c0 -6 7
-58 15 -116 8 -58 15 -120 15 -137 l0 -33 -134 0 c-79 0 -137 4 -141 10 -3 6
4 73 16 149 l21 140 104 -1 c71 0 104 -4 104 -12z"/>
<path d="M4348 3627 c-64 -29 -98 -82 -98 -155 0 -113 117 -193 223 -153 39
15 86 69 98 114 34 126 -104 246 -223 194z m120 -57 c40 -24 64 -77 56 -119
-10 -47 -66 -91 -115 -91 -33 0 -47 6 -75 34 -28 28 -34 41 -34 78 0 51 21 85
64 104 43 18 66 17 104 -6z"/>
<path d="M4840 3629 c-99 -40 -136 -177 -69 -254 41 -47 78 -65 131 -65 74 0
138 51 157 126 32 125 -99 241 -219 193z m110 -54 c42 -21 60 -53 60 -103 0
-37 -6 -50 -34 -78 -28 -28 -42 -34 -76 -34 -34 0 -48 6 -76 34 -28 28 -34 42
-34 76 0 52 13 76 53 100 38 24 68 25 107 5z"/>
<path d="M4254 3235 c-3 -8 -3 -19 1 -25 10 -16 789 -14 804 3 28 34 -5 37
-406 37 -335 0 -394 -2 -399 -15z"/>
<path d="M4250 3061 c0 -10 7 -22 16 -25 9 -3 188 -6 398 -6 387 0 412 2 399
36 -4 12 -75 14 -409 14 -390 0 -404 -1 -404 -19z"/>
<path d="M4257 2913 c-4 -3 -7 -15 -7 -25 0 -17 19 -18 404 -18 334 0 405 2
409 14 13 34 -12 36 -408 36 -216 0 -395 -3 -398 -7z"/>
<path d="M2078 1669 c-27 -15 -22 -48 8 -59 16 -6 398 -10 1019 -10 890 0 995
2 1009 16 20 19 20 29 0 48 -14 14 -120 16 -1017 16 -662 -1 -1008 -4 -1019
-11z"/>
<path d="M4252 1668 c-20 -20 -14 -48 14 -58 14 -6 117 -10 229 -10 172 0 206
2 219 16 9 8 16 19 16 24 0 5 -7 16 -16 24 -13 14 -49 16 -233 16 -155 0 -220
-3 -229 -12z"/>
<path d="M4918 1669 c-23 -13 -23 -46 0 -58 26 -14 547 -15 572 -1 25 14 26
46 1 60 -26 13 -550 13 -573 -1z"/>
<path d="M2611 1402 c-6 -11 -6 -24 0 -35 9 -16 90 -17 1315 -17 1199 0 1305
1 1311 16 3 9 2 24 -4 33 -9 15 -126 16 -1311 19 -1239 2 -1302 1 -1311 -16z"/>
<path d="M0 400 l0 -400 5000 0 5000 0 0 400 0 400 -5000 0 -5000 0 0 -400z
m1395 106 c25 -11 33 -19 29 -30 -7 -19 -5 -19 -40 -1 -36 18 -55 19 -78 2
-28 -21 -9 -45 49 -62 87 -25 108 -74 54 -127 -29 -29 -33 -30 -90 -25 -68 6
-72 8 -64 29 5 13 12 14 40 5 50 -15 100 1 100 33 0 16 -8 28 -25 36 -87 40
-105 51 -108 67 -14 70 53 106 133 73z m587 -48 l3 -62 36 32 c20 18 45 32 55
32 14 0 9 -9 -21 -40 l-39 -40 42 -60 c40 -57 41 -60 20 -60 -16 0 -32 14 -53
45 -16 25 -33 45 -37 45 -5 0 -8 -20 -8 -45 0 -38 -3 -45 -20 -45 -19 0 -20 7
-20 130 0 122 1 130 20 130 16 0 19 -8 22 -62z m-1353 -24 c12 -15 21 -40 21
-55 0 -29 0 -29 -65 -29 -72 0 -83 -12 -44 -51 17 -17 30 -20 65 -16 43 4 59
-5 28 -17 -45 -17 -106 3 -123 41 -45 98 56 206 118 127z m456 3 c20 -16 28
-35 32 -69 5 -42 3 -50 -25 -78 -41 -41 -83 -41 -124 0 -28 28 -30 36 -25 78
9 82 84 119 142 69z m622 8 c30 -21 44 -75 32 -120 -25 -88 -143 -88 -168 0
-20 72 20 135 84 135 17 0 40 -7 52 -15z"/>
<path d="M986 424 c-50 -50 -21 -144 44 -144 48 0 80 50 66 104 -13 53 -75 75
-110 40z"/>
</g>
</svg>
